<svg width="14" height="14" viewBox="0 0 14 14" fill="none" xmlns="http://www.w3.org/2000/svg">
<path d="M8.83498 12.249C8.83485 12.7129 8.64146 13.1583 8.29787 13.4863C7.95407 13.8144 7.48712 13.999 7.001 13.999C6.51501 13.9989 6.04882 13.8143 5.7051 13.4863C5.36144 13.1582 5.16813 12.713 5.16799 12.249H8.83498ZM6.99807 0C7.16887 0 7.33814 0.034691 7.49514 0.101562C7.6519 0.168353 7.79351 0.265822 7.91213 0.387695C8.03075 0.509672 8.12499 0.653986 8.1885 0.811523C8.25194 0.969024 8.28414 1.13792 8.2842 1.30762V1.44434C9.12399 1.6972 9.87257 2.20286 10.4307 2.89844C11.0763 3.70328 11.4276 4.71267 11.4268 5.75195C11.4268 6.98509 11.6386 7.75133 11.8809 8.25586C12.1242 8.76247 12.4081 9.03381 12.6602 9.3125H12.6592C12.8803 9.55364 13.001 9.87008 13 10.1963C12.9999 10.3664 12.9671 10.5356 12.9033 10.6934C12.8396 10.851 12.7459 10.9952 12.627 11.1172C12.5079 11.2393 12.3653 11.3367 12.208 11.4033C12.0511 11.4698 11.8825 11.5032 11.7119 11.5029V11.5039H2.28811V11.5029C2.11752 11.5031 1.94897 11.4698 1.79202 11.4033C1.6347 11.3367 1.49215 11.2393 1.37307 11.1172C1.25416 10.9952 1.16045 10.851 1.0967 10.6934C1.04883 10.5749 1.01811 10.45 1.00588 10.3232L1.00002 10.1963C0.998096 9.87029 1.11763 9.55333 1.33791 9.31152C1.58977 9.03318 1.87321 8.7619 2.11623 8.25586C2.3585 7.75133 2.56936 6.98509 2.56936 5.75195C2.56855 4.71267 2.91982 3.70328 3.56545 2.89844C4.12366 2.20262 4.87288 1.69721 5.71291 1.44434V1.30762C5.71298 1.13792 5.74518 0.969024 5.80862 0.811523C5.87212 0.654027 5.96542 0.509643 6.08401 0.387695C6.20272 0.265638 6.34503 0.168415 6.50198 0.101562C6.65884 0.0347759 6.82743 4.46363e-05 6.99807 0Z" fill="#F92C0D"/>
</svg>
