<svg width="14" height="14" viewBox="0 0 14 14" fill="none" xmlns="http://www.w3.org/2000/svg">
<path d="M8.83498 12.25C8.83498 12.7141 8.64157 13.1591 8.29788 13.4873C7.95405 13.8155 7.48724 14 7.001 14C6.51489 13.9999 6.04884 13.8154 5.7051 13.4873C5.36132 13.1591 5.16799 12.7141 5.16799 12.25H8.83498ZM6.99807 0C7.16889 1.61353e-07 7.33813 0.0346806 7.49514 0.101562C7.65192 0.168364 7.79351 0.265797 7.91213 0.387695C8.03077 0.509696 8.12499 0.653949 8.1885 0.811523C8.25195 0.969056 8.28415 1.13789 8.2842 1.30762V1.44434C9.12401 1.69721 9.87257 2.20283 10.4307 2.89844C11.0763 3.70331 11.4276 4.71263 11.4268 5.75195C11.4268 6.98516 11.6386 7.75133 11.8809 8.25586C12.1242 8.7625 12.4081 9.03379 12.6602 9.3125H12.6592C12.8803 9.55367 13.001 9.87004 13 10.1963C12.9999 10.3664 12.9671 10.5356 12.9033 10.6934C12.8396 10.851 12.7459 10.9952 12.627 11.1172C12.5079 11.2393 12.3654 11.3367 12.208 11.4033C12.0511 11.4698 11.8825 11.5032 11.7119 11.5029V11.5039H2.28811V11.5029C2.11752 11.5031 1.94897 11.4698 1.79202 11.4033C1.63469 11.3367 1.49216 11.2393 1.37307 11.1172C1.25414 10.9952 1.16046 10.851 1.0967 10.6934C1.04881 10.5749 1.01811 10.45 1.00588 10.3232L1.00002 10.1963C0.998071 9.87025 1.11761 9.55336 1.33791 9.31152C1.58978 9.03316 1.8732 8.76194 2.11623 8.25586C2.35851 7.75133 2.56936 6.98516 2.56936 5.75195C2.56853 4.71263 2.9198 3.70331 3.56545 2.89844C4.12367 2.20258 4.87286 1.69721 5.71291 1.44434V1.30762C5.71296 1.13789 5.74516 0.969056 5.80862 0.811523C5.87212 0.653994 5.9654 0.509665 6.08401 0.387695C6.20273 0.265616 6.34501 0.168424 6.50198 0.101562C6.65885 0.0347669 6.82742 4.28352e-05 6.99807 0Z" fill="#4759AF"/>
</svg>
